<svg width="341.591" height="63.8" viewBox="0 0 341.591 63.8" xmlns="http://www.w3.org/2000/svg"><g id="svgGroup" stroke-linecap="round" fill-rule="evenodd" font-size="9pt" stroke="#000" stroke-width="0.25mm" fill="black" style="stroke:#000;stroke-width:0.25mm;fill:black"><path d="M 4.002 61.45 A 14.489 14.489 0 0 0 7.107 62.788 Q 10.408 63.8 15.002 63.8 A 37.791 37.791 0 0 0 19.281 63.547 A 49.005 49.005 0 0 0 24.502 62.65 Q 29.602 61.5 34.852 59.4 Q 40.102 57.3 44.852 54.4 A 56.863 56.863 0 0 0 47.709 52.539 A 47.514 47.514 0 0 0 53.202 48.1 A 21.942 21.942 0 0 0 55.14 46.006 Q 57.802 42.695 57.802 39.5 Q 57.802 36.4 55.752 33.95 A 18.206 18.206 0 0 0 53.207 31.474 A 24.724 24.724 0 0 0 50.352 29.5 A 49.645 49.645 0 0 0 49.077 28.764 A 55.59 55.59 0 0 0 43.102 25.9 Q 39.202 24.3 35.402 22.9 A 147.734 147.734 0 0 1 34.902 22.715 Q 33.163 22.067 31.619 21.441 A 87.745 87.745 0 0 1 28.702 20.2 A 16.311 16.311 0 0 1 27.446 19.558 Q 24.802 18.047 24.802 16.4 A 2.494 2.494 0 0 1 24.986 15.489 Q 25.717 13.62 29.357 11.286 A 41.09 41.09 0 0 1 31.702 9.9 Q 35.402 7.9 39.402 6.7 Q 43.402 5.5 46.802 4.95 Q 50.202 4.4 52.002 4.4 A 22.815 22.815 0 0 1 53.762 4.465 Q 54.986 4.56 56.026 4.793 A 10.341 10.341 0 0 1 58.152 5.5 A 5.514 5.514 0 0 1 59.215 6.139 A 3.116 3.116 0 0 1 60.502 8.7 A 3.577 3.577 0 0 1 60.487 9.03 Q 60.421 9.746 60.067 10.461 A 5.973 5.973 0 0 1 59.402 11.5 Q 58.302 12.9 57.202 13.85 A 17.971 17.971 0 0 0 57.144 13.9 Q 56.102 14.808 56.102 15.1 Q 56.102 15.8 56.702 15.8 A 1.03 1.03 0 0 0 56.802 15.795 Q 57.594 15.718 59.002 14.45 Q 60.502 13.1 61.302 11.6 A 16.602 16.602 0 0 0 62.16 10.049 Q 63.102 8.092 63.102 6.5 A 4.19 4.19 0 0 0 61.284 2.937 Q 59.451 1.599 55.771 1.185 A 33.033 33.033 0 0 0 52.102 1 A 24.926 24.926 0 0 0 50.245 1.075 Q 49.241 1.151 48.087 1.301 A 60.419 60.419 0 0 0 45.502 1.7 Q 41.502 2.4 37.102 3.75 A 50.886 50.886 0 0 0 37.034 3.771 A 46.535 46.535 0 0 0 28.852 7.15 A 27.836 27.836 0 0 0 25.751 9.059 A 20.797 20.797 0 0 0 22.552 11.85 A 11.025 11.025 0 0 0 22.037 12.448 A 8.368 8.368 0 0 0 20.102 17.8 A 5.852 5.852 0 0 0 21.079 21.093 A 7.492 7.492 0 0 0 22.602 22.75 A 17.738 17.738 0 0 0 23.257 23.261 Q 24.466 24.162 25.961 24.97 A 31.637 31.637 0 0 0 29.002 26.4 A 112.151 112.151 0 0 0 30.991 27.194 A 129.294 129.294 0 0 0 37.302 29.45 Q 41.702 30.9 45.602 32.5 Q 47.796 33.4 49.547 34.411 A 21.316 21.316 0 0 1 52.002 36.05 A 8.199 8.199 0 0 1 52.731 36.688 A 5.605 5.605 0 0 1 54.502 40.8 A 6.156 6.156 0 0 1 54.435 41.694 A 7.635 7.635 0 0 1 54.152 42.9 Q 53.802 44 53.002 45.2 Q 52.116 46.592 50.59 47.964 A 23.111 23.111 0 0 1 48.602 49.55 A 35.615 35.615 0 0 1 46.553 50.912 A 41.876 41.876 0 0 1 41.852 53.4 A 77.743 77.743 0 0 1 41.618 53.506 A 71.211 71.211 0 0 1 34.402 56.3 A 111.722 111.722 0 0 1 33.625 56.504 Q 32.688 56.746 31.393 57.069 A 467.678 467.678 0 0 1 30.052 57.4 Q 27.202 58.1 23.702 58.65 Q 20.202 59.2 16.802 59.2 A 32.342 32.342 0 0 1 16.577 59.199 Q 13.099 59.175 10.685 58.399 A 9.454 9.454 0 0 1 8.102 57.15 A 8.804 8.804 0 0 1 7.191 56.414 A 5.82 5.82 0 0 1 5.202 52 A 6.882 6.882 0 0 1 5.249 51.209 Q 5.359 50.257 5.73 49.238 A 12.761 12.761 0 0 1 6.552 47.45 Q 7.333 46.034 8.564 44.634 A 23.549 23.549 0 0 1 10.602 42.6 Q 14.002 39.4 18.352 37.6 Q 22.702 35.8 26.402 35.8 Q 27.604 35.8 28.118 35.505 A 0.673 0.673 0 0 0 28.502 34.9 A 0.354 0.354 0 0 0 28.351 34.616 Q 27.953 34.3 26.502 34.3 A 22.73 22.73 0 0 0 22.175 34.737 A 31.282 31.282 0 0 0 18.052 35.85 Q 13.502 37.4 9.352 40.15 A 28.268 28.268 0 0 0 7.971 41.125 A 24.078 24.078 0 0 0 2.602 46.65 Q 0.002 50.4 0.002 54.8 Q 0.002 59.1 4.002 61.45 Z M 62.602 61.7 Q 61.802 61.7 62.202 61 A 35.232 35.232 0 0 1 62.3 60.712 Q 62.562 59.95 63.252 58 A 4130.003 4130.003 0 0 0 63.939 56.059 Q 64.246 55.192 64.586 54.227 A 8133.234 8133.234 0 0 0 65.302 52.2 Q 66.502 48.8 67.802 45.25 A 351.723 351.723 0 0 1 68.977 42.087 Q 69.538 40.6 70.055 39.275 A 210.812 210.812 0 0 1 70.202 38.9 Q 69.666 39.589 68.691 40.747 A 162.312 162.312 0 0 1 68.052 41.5 Q 66.602 43.2 65.002 45.1 A 62.911 62.911 0 0 1 63.546 46.771 Q 62.746 47.656 62.002 48.4 A 3.984 3.984 0 0 1 61.897 48.502 Q 61.743 48.645 61.657 48.685 A 0.138 0.138 0 0 1 61.603 48.7 Q 61.336 48.7 61.306 48.227 A 2.02 2.02 0 0 1 61.302 48.1 Q 61.302 46.9 61.902 45.9 Q 64.102 43.1 66.152 40.65 Q 68.202 38.2 69.902 36 Q 69.231 35.597 69.01 35.059 A 1.459 1.459 0 0 1 68.902 34.5 A 2.015 2.015 0 0 1 68.972 33.946 Q 69.15 33.325 69.784 33.16 A 2.063 2.063 0 0 1 70.302 33.1 A 2.902 2.902 0 0 1 70.616 33.116 Q 70.987 33.156 71.202 33.3 A 0.451 0.451 0 0 0 71.263 33.352 Q 71.333 33.4 71.402 33.4 Q 71.481 33.4 71.56 33.525 A 0.861 0.861 0 0 1 71.602 33.6 A 19.935 19.935 0 0 0 72.061 32.93 Q 72.275 32.604 72.451 32.302 A 7.643 7.643 0 0 0 72.452 32.3 Q 72.802 31.7 73.102 31 A 32.817 32.817 0 0 1 73.336 30.487 Q 73.688 29.733 74.331 28.412 A 363.541 363.541 0 0 1 74.752 27.55 A 121.023 121.023 0 0 1 75.781 25.504 Q 76.248 24.596 76.778 23.595 A 234.034 234.034 0 0 1 77.902 21.5 A 97.48 97.48 0 0 1 80.492 17.027 A 116.224 116.224 0 0 1 82.252 14.25 Q 84.702 10.5 87.552 7.25 A 33.127 33.127 0 0 1 90.637 4.15 A 25.632 25.632 0 0 1 93.452 2 A 12.749 12.749 0 0 1 96.442 0.532 A 10.336 10.336 0 0 1 99.702 0 Q 100.102 0 100.502 0.05 Q 100.902 0.1 101.302 0.2 Q 103.802 0.7 104.802 1.95 A 4.553 4.553 0 0 1 105.801 4.768 A 5.692 5.692 0 0 1 105.802 4.9 A 7.276 7.276 0 0 1 105.644 6.375 A 9.471 9.471 0 0 1 105.352 7.45 A 12.569 12.569 0 0 1 104.297 9.774 A 14.127 14.127 0 0 1 104.102 10.1 A 34.039 34.039 0 0 1 101.526 13.943 A 44.981 44.981 0 0 1 98.802 17.15 A 84.377 84.377 0 0 1 93.43 22.419 A 97.125 97.125 0 0 1 91.452 24.15 Q 87.402 27.6 83.352 30.85 Q 79.302 34.1 75.802 37 A 107.661 107.661 0 0 0 74.157 40.663 Q 73.381 42.487 72.772 44.135 A 56.854 56.854 0 0 0 72.102 46.05 Q 70.802 50 70.102 52.4 A 70.749 70.749 0 0 1 70.721 51.625 Q 71.43 50.748 72.431 49.553 A 301.912 301.912 0 0 1 73.402 48.4 Q 75.602 45.8 78.402 42.8 Q 81.202 39.8 84.202 37.05 A 52.926 52.926 0 0 1 86.949 34.692 Q 88.468 33.48 89.902 32.55 Q 92.392 30.936 94.201 30.811 A 4.341 4.341 0 0 1 94.502 30.8 A 3.307 3.307 0 0 1 95.467 30.928 Q 96.526 31.252 96.804 32.39 A 3.852 3.852 0 0 1 96.902 33.3 Q 96.902 35.7 95.202 38.6 A 319.768 319.768 0 0 0 94.39 39.994 Q 93.236 41.984 92.415 43.476 A 103.059 103.059 0 0 0 92.402 43.5 A 47.141 47.141 0 0 0 90.934 46.856 A 37.853 37.853 0 0 0 90.152 49.05 A 38.875 38.875 0 0 0 89.684 50.613 Q 89.24 52.231 89.102 53.4 A 3.473 3.473 0 0 0 89.023 53.823 A 2.713 2.713 0 0 0 89.002 54.15 L 89.002 54.9 A 8.462 8.462 0 0 0 89.109 56.31 Q 89.534 58.812 91.651 58.897 A 3.763 3.763 0 0 0 91.802 58.9 A 3.457 3.457 0 0 0 92.781 58.741 Q 93.699 58.468 94.878 57.726 A 18.104 18.104 0 0 0 95.802 57.1 A 42.593 42.593 0 0 0 98.646 54.854 A 53.976 53.976 0 0 0 100.902 52.8 A 114.022 114.022 0 0 0 103.976 49.734 A 94.536 94.536 0 0 0 105.652 47.95 Q 107.802 45.6 108.602 44.4 A 1.045 1.045 0 0 1 108.911 44.182 A 0.94 0.94 0 0 1 109.302 44.1 A 0.843 0.843 0 0 1 109.554 44.135 A 0.637 0.637 0 0 1 109.902 44.4 Q 110.084 44.672 109.936 45.108 A 1.789 1.789 0 0 1 109.902 45.2 A 20.148 20.148 0 0 1 109.17 46.346 Q 108.307 47.607 106.992 49.219 A 68.706 68.706 0 0 1 106.802 49.45 A 62.993 62.993 0 0 1 103.41 53.235 A 72.945 72.945 0 0 1 102.102 54.55 Q 99.502 57.1 97.002 58.9 A 9.852 9.852 0 0 1 95.721 59.727 Q 94.805 60.228 93.652 60.65 Q 92.19 61.185 90.754 61.338 A 10.836 10.836 0 0 1 89.602 61.4 A 6.471 6.471 0 0 1 86.643 60.673 A 7.586 7.586 0 0 1 86.502 60.6 Q 85.2 59.905 84.501 58.156 A 8.184 8.184 0 0 1 84.302 57.6 A 3.597 3.597 0 0 1 84.295 57.579 Q 84.002 56.681 84.002 55.1 L 84.002 54.05 A 6.722 6.722 0 0 1 84.056 53.215 A 7.842 7.842 0 0 1 84.102 52.9 A 18.495 18.495 0 0 1 84.908 49.401 A 25.298 25.298 0 0 1 86.252 46.15 A 251.039 251.039 0 0 1 87.914 42.837 Q 88.715 41.272 89.455 39.889 A 152.835 152.835 0 0 1 89.502 39.8 Q 89.808 39.188 90.027 38.692 A 15.606 15.606 0 0 0 90.152 38.4 A 4.461 4.461 0 0 0 90.284 38.045 Q 90.398 37.687 90.402 37.418 A 1.301 1.301 0 0 0 90.402 37.4 A 1.33 1.33 0 0 0 90.371 37.098 Q 90.275 36.686 89.881 36.615 A 1.002 1.002 0 0 0 89.702 36.6 A 1.705 1.705 0 0 0 89.281 36.662 Q 88.61 36.836 87.502 37.5 A 14.429 14.429 0 0 0 86.579 38.109 Q 85.299 39.019 83.502 40.6 A 29.335 29.335 0 0 0 81.565 42.445 Q 80.249 43.811 78.852 45.55 Q 76.402 48.6 74.052 51.8 Q 71.702 55 69.952 57.3 A 42.668 42.668 0 0 1 69.333 58.096 Q 68.362 59.311 67.802 59.783 A 2.091 2.091 0 0 1 67.502 60 A 4.029 4.029 0 0 1 67.221 60.15 Q 66.608 60.453 65.202 61 Q 63.402 61.7 62.602 61.7 Z M 190.702 61.7 Q 189.902 61.7 190.302 61 A 35.232 35.232 0 0 1 190.4 60.712 Q 190.662 59.95 191.352 58 A 4130.003 4130.003 0 0 0 192.039 56.059 Q 192.346 55.192 192.686 54.227 A 8133.234 8133.234 0 0 0 193.402 52.2 Q 194.602 48.8 195.902 45.25 A 351.723 351.723 0 0 1 197.077 42.087 Q 197.638 40.6 198.155 39.275 A 210.812 210.812 0 0 1 198.302 38.9 Q 197.766 39.589 196.791 40.747 A 162.312 162.312 0 0 1 196.152 41.5 Q 194.702 43.2 193.102 45.1 A 62.911 62.911 0 0 1 191.646 46.771 Q 190.846 47.656 190.102 48.4 A 3.984 3.984 0 0 1 189.997 48.502 Q 189.843 48.645 189.757 48.685 A 0.138 0.138 0 0 1 189.703 48.7 Q 189.436 48.7 189.406 48.227 A 2.02 2.02 0 0 1 189.402 48.1 Q 189.402 46.9 190.002 45.9 Q 192.202 43.1 194.252 40.65 Q 196.302 38.2 198.002 36 Q 197.331 35.597 197.11 35.059 A 1.459 1.459 0 0 1 197.002 34.5 A 2.015 2.015 0 0 1 197.072 33.946 Q 197.25 33.325 197.884 33.16 A 2.063 2.063 0 0 1 198.402 33.1 A 2.902 2.902 0 0 1 198.716 33.116 Q 199.087 33.156 199.302 33.3 A 0.451 0.451 0 0 0 199.363 33.352 Q 199.433 33.4 199.502 33.4 Q 199.581 33.4 199.66 33.525 A 0.861 0.861 0 0 1 199.702 33.6 A 19.935 19.935 0 0 0 200.161 32.93 Q 200.375 32.604 200.551 32.302 A 7.643 7.643 0 0 0 200.552 32.3 Q 200.902 31.7 201.202 31 A 32.817 32.817 0 0 1 201.436 30.487 Q 201.788 29.733 202.431 28.412 A 363.541 363.541 0 0 1 202.852 27.55 A 121.023 121.023 0 0 1 203.881 25.504 Q 204.348 24.596 204.878 23.595 A 234.034 234.034 0 0 1 206.002 21.5 A 97.48 97.48 0 0 1 208.592 17.027 A 116.224 116.224 0 0 1 210.352 14.25 Q 212.802 10.5 215.652 7.25 A 33.127 33.127 0 0 1 218.737 4.15 A 25.632 25.632 0 0 1 221.552 2 A 12.749 12.749 0 0 1 224.542 0.532 A 10.336 10.336 0 0 1 227.802 0 Q 228.202 0 228.602 0.05 Q 229.002 0.1 229.402 0.2 Q 231.902 0.7 232.902 1.95 A 4.553 4.553 0 0 1 233.901 4.768 A 5.692 5.692 0 0 1 233.902 4.9 A 7.276 7.276 0 0 1 233.744 6.375 A 9.471 9.471 0 0 1 233.452 7.45 A 12.569 12.569 0 0 1 232.397 9.774 A 14.127 14.127 0 0 1 232.202 10.1 A 34.039 34.039 0 0 1 229.626 13.943 A 44.981 44.981 0 0 1 226.902 17.15 A 84.377 84.377 0 0 1 221.53 22.419 A 97.125 97.125 0 0 1 219.552 24.15 Q 215.502 27.6 211.452 30.85 Q 207.402 34.1 203.902 37 A 107.661 107.661 0 0 0 202.257 40.663 Q 201.481 42.487 200.872 44.135 A 56.854 56.854 0 0 0 200.202 46.05 Q 198.902 50 198.202 52.4 A 70.749 70.749 0 0 1 198.821 51.625 Q 199.53 50.748 200.531 49.553 A 301.912 301.912 0 0 1 201.502 48.4 Q 203.702 45.8 206.502 42.8 Q 209.302 39.8 212.302 37.05 A 52.926 52.926 0 0 1 215.049 34.692 Q 216.568 33.48 218.002 32.55 Q 220.492 30.936 222.301 30.811 A 4.341 4.341 0 0 1 222.602 30.8 A 3.307 3.307 0 0 1 223.567 30.928 Q 224.626 31.252 224.904 32.39 A 3.852 3.852 0 0 1 225.002 33.3 Q 225.002 35.7 223.302 38.6 A 319.768 319.768 0 0 0 222.49 39.994 Q 221.336 41.984 220.515 43.476 A 103.059 103.059 0 0 0 220.502 43.5 A 47.141 47.141 0 0 0 219.034 46.856 A 37.853 37.853 0 0 0 218.252 49.05 A 38.875 38.875 0 0 0 217.784 50.613 Q 217.34 52.231 217.202 53.4 A 3.473 3.473 0 0 0 217.123 53.823 A 2.713 2.713 0 0 0 217.102 54.15 L 217.102 54.9 A 8.462 8.462 0 0 0 217.209 56.31 Q 217.634 58.812 219.751 58.897 A 3.763 3.763 0 0 0 219.902 58.9 A 3.457 3.457 0 0 0 220.881 58.741 Q 221.799 58.468 222.978 57.726 A 18.104 18.104 0 0 0 223.902 57.1 A 42.593 42.593 0 0 0 226.746 54.854 A 53.976 53.976 0 0 0 229.002 52.8 A 114.022 114.022 0 0 0 232.076 49.734 A 94.536 94.536 0 0 0 233.752 47.95 Q 235.902 45.6 236.702 44.4 A 1.045 1.045 0 0 1 237.011 44.182 A 0.94 0.94 0 0 1 237.402 44.1 A 0.843 0.843 0 0 1 237.654 44.135 A 0.637 0.637 0 0 1 238.002 44.4 Q 238.184 44.672 238.036 45.108 A 1.789 1.789 0 0 1 238.002 45.2 A 20.148 20.148 0 0 1 237.27 46.346 Q 236.407 47.607 235.092 49.219 A 68.706 68.706 0 0 1 234.902 49.45 A 62.993 62.993 0 0 1 231.51 53.235 A 72.945 72.945 0 0 1 230.202 54.55 Q 227.602 57.1 225.102 58.9 A 9.852 9.852 0 0 1 223.821 59.727 Q 222.905 60.228 221.752 60.65 Q 220.29 61.185 218.854 61.338 A 10.836 10.836 0 0 1 217.702 61.4 A 6.471 6.471 0 0 1 214.743 60.673 A 7.586 7.586 0 0 1 214.602 60.6 Q 213.3 59.905 212.601 58.156 A 8.184 8.184 0 0 1 212.402 57.6 A 3.597 3.597 0 0 1 212.395 57.579 Q 212.102 56.681 212.102 55.1 L 212.102 54.05 A 6.722 6.722 0 0 1 212.156 53.215 A 7.842 7.842 0 0 1 212.202 52.9 A 18.495 18.495 0 0 1 213.008 49.401 A 25.298 25.298 0 0 1 214.352 46.15 A 251.039 251.039 0 0 1 216.014 42.837 Q 216.815 41.272 217.555 39.889 A 152.835 152.835 0 0 1 217.602 39.8 Q 217.908 39.188 218.127 38.692 A 15.606 15.606 0 0 0 218.252 38.4 A 4.461 4.461 0 0 0 218.384 38.045 Q 218.498 37.687 218.502 37.418 A 1.301 1.301 0 0 0 218.502 37.4 A 1.33 1.33 0 0 0 218.471 37.098 Q 218.375 36.686 217.981 36.615 A 1.002 1.002 0 0 0 217.802 36.6 A 1.705 1.705 0 0 0 217.381 36.662 Q 216.71 36.836 215.602 37.5 A 14.429 14.429 0 0 0 214.679 38.109 Q 213.399 39.019 211.602 40.6 A 29.335 29.335 0 0 0 209.665 42.445 Q 208.349 43.811 206.952 45.55 Q 204.502 48.6 202.152 51.8 Q 199.802 55 198.052 57.3 A 42.668 42.668 0 0 1 197.433 58.096 Q 196.462 59.311 195.902 59.783 A 2.091 2.091 0 0 1 195.602 60 A 4.029 4.029 0 0 1 195.321 60.15 Q 194.708 60.453 193.302 61 Q 191.502 61.7 190.702 61.7 Z M 278.797 61.686 A 1.351 1.351 0 0 0 279.002 61.7 A 3.134 3.134 0 0 0 279.438 61.666 Q 280.286 61.547 281.652 61 A 106.544 106.544 0 0 0 282.243 60.762 Q 283.148 60.393 283.658 60.163 A 10.141 10.141 0 0 0 284.002 60 A 2.091 2.091 0 0 0 284.302 59.783 Q 284.862 59.311 285.833 58.096 A 42.668 42.668 0 0 0 286.452 57.3 A 183.647 183.647 0 0 0 287.6 55.775 Q 288.2 54.968 288.855 54.073 A 338.255 338.255 0 0 0 290.502 51.8 Q 292.802 48.6 295.302 45.55 A 67.173 67.173 0 0 1 296.396 44.249 Q 297.29 43.212 298.13 42.334 A 34.295 34.295 0 0 1 299.902 40.6 A 55.255 55.255 0 0 1 300.732 39.88 Q 302.766 38.152 304.102 37.4 A 18.244 18.244 0 0 1 304.33 37.274 Q 305.369 36.709 305.996 36.556 A 1.748 1.748 0 0 1 306.402 36.5 A 1.002 1.002 0 0 1 306.581 36.515 Q 306.975 36.586 307.071 36.998 A 1.33 1.33 0 0 1 307.102 37.3 Q 307.102 38.1 306.302 39.5 L 304.852 42.4 Q 303.802 44.5 302.552 47.05 Q 301.302 49.6 300.302 52 A 4.984 4.984 0 0 0 300.16 52.371 Q 300.084 52.596 300.044 52.797 A 2.106 2.106 0 0 0 300.002 53.2 Q 300.002 54.226 300.936 54.442 A 2.518 2.518 0 0 0 301.502 54.5 A 3.019 3.019 0 0 0 301.924 54.47 Q 302.741 54.355 303.652 53.8 A 4.419 4.419 0 0 0 304.18 53.425 A 3.302 3.302 0 0 0 305.202 52 A 147.501 147.501 0 0 0 305.28 51.922 Q 306.859 50.341 309.152 47.95 A 56.03 56.03 0 0 1 310.675 46.424 A 65.415 65.415 0 0 1 314.402 43.1 A 25.026 25.026 0 0 1 316.234 41.717 A 20.503 20.503 0 0 1 320.402 39.5 A 29.969 29.969 0 0 0 320.066 40.093 Q 319.503 41.11 318.852 42.45 A 44.419 44.419 0 0 0 318.62 42.935 Q 317.932 44.397 317.502 45.6 Q 317.065 46.788 316.666 48.327 A 48.132 48.132 0 0 0 316.202 50.3 A 33.748 33.748 0 0 0 316.045 51.076 Q 315.828 52.221 315.717 53.26 A 19.284 19.284 0 0 0 315.602 55.3 Q 315.602 56.7 315.902 57.6 A 8.343 8.343 0 0 0 316.146 58.269 Q 316.834 59.928 318.052 60.6 Q 319.502 61.4 321.302 61.4 Q 323.302 61.4 325.252 60.65 A 18.262 18.262 0 0 0 325.501 60.552 Q 326.362 60.207 327.09 59.81 A 10.702 10.702 0 0 0 328.502 58.9 A 41.372 41.372 0 0 0 330.879 57.048 A 53.998 53.998 0 0 0 333.652 54.55 A 75.121 75.121 0 0 0 334.985 53.235 A 64.863 64.863 0 0 0 338.452 49.45 Q 339.93 47.697 340.818 46.346 A 14.286 14.286 0 0 0 341.502 45.2 Q 341.591 44.978 341.591 44.795 A 0.598 0.598 0 0 0 341.452 44.4 A 0.815 0.815 0 0 0 341.142 44.165 A 0.864 0.864 0 0 0 340.802 44.1 A 0.629 0.629 0 0 0 340.603 44.133 Q 340.403 44.199 340.202 44.4 Q 339.402 45.6 337.252 47.95 A 111.425 111.425 0 0 1 335.576 49.741 A 136.374 136.374 0 0 1 332.502 52.85 A 47.099 47.099 0 0 1 330.206 54.962 A 36.109 36.109 0 0 1 327.402 57.15 A 17.991 17.991 0 0 1 326.726 57.602 Q 324.68 58.9 323.302 58.9 Q 321.19 58.9 320.794 56.259 A 9.213 9.213 0 0 1 320.702 54.9 L 320.702 54.15 A 2.713 2.713 0 0 1 320.723 53.823 A 3.473 3.473 0 0 1 320.802 53.4 A 11.845 11.845 0 0 1 320.834 53.163 Q 320.984 52.134 321.361 50.727 A 43.267 43.267 0 0 1 321.802 49.2 Q 322.602 46.6 323.952 43.65 Q 325.302 40.7 327.002 38.1 Q 327.401 37.644 327.573 37.22 A 1.647 1.647 0 0 0 327.702 36.6 Q 327.702 35.6 326.202 35.6 A 6.116 6.116 0 0 0 325.664 35.625 Q 325.198 35.666 324.671 35.776 A 12.858 12.858 0 0 0 323.602 36.05 A 84.934 84.934 0 0 0 323.086 36.206 Q 322.299 36.448 321.869 36.601 A 7.283 7.283 0 0 0 321.602 36.7 Q 319.402 37.5 316.852 39.2 Q 314.302 40.9 312.002 42.85 A 320.133 320.133 0 0 0 311.854 42.975 Q 310.75 43.912 309.763 44.768 A 196.111 196.111 0 0 0 307.902 46.4 A 38.642 38.642 0 0 0 308.258 45.722 Q 308.679 44.901 309.233 43.747 A 165.308 165.308 0 0 0 309.802 42.55 A 2568.356 2568.356 0 0 0 310.337 41.412 Q 310.896 40.224 311.321 39.316 A 777.576 777.576 0 0 0 311.702 38.5 A 26.599 26.599 0 0 0 311.997 37.892 Q 312.851 36.07 313.146 34.667 A 6.673 6.673 0 0 0 313.302 33.3 A 5.614 5.614 0 0 0 313.3 33.143 Q 313.248 31.291 311.954 30.843 A 2.907 2.907 0 0 0 311.002 30.7 A 4.221 4.221 0 0 0 310.701 30.711 Q 309.444 30.801 307.858 31.63 A 16.01 16.01 0 0 0 306.402 32.5 Q 303.702 34.3 300.652 37.05 Q 297.602 39.8 294.752 42.85 Q 291.902 45.9 289.702 48.45 A 234.027 234.027 0 0 0 288.731 49.582 Q 287.73 50.758 287.021 51.628 A 56.188 56.188 0 0 0 286.402 52.4 A 162.838 162.838 0 0 1 286.714 51.526 Q 287.272 49.973 288.152 47.6 Q 289.302 44.5 290.702 41 A 249.596 249.596 0 0 1 290.887 40.539 Q 291.532 38.936 292.133 37.507 A 148.027 148.027 0 0 1 293.302 34.8 Q 293.502 34.3 293.702 33.85 A 2.526 2.526 0 0 0 293.841 33.459 A 1.826 1.826 0 0 0 293.902 33 A 0.906 0.906 0 0 0 293.806 32.581 Q 293.453 31.892 291.816 31.742 A 11.155 11.155 0 0 0 290.802 31.7 A 5.167 5.167 0 0 0 290.561 31.705 Q 290.051 31.729 289.641 31.856 A 2.174 2.174 0 0 0 288.152 33.3 A 28.623 28.623 0 0 0 287.836 34.274 Q 287.538 35.252 287.402 36 Q 286.602 37.6 285.852 38.85 A 31.037 31.037 0 0 1 285.634 39.207 Q 284.948 40.318 284.002 41.65 Q 282.902 43.2 280.802 45.9 Q 280.202 46.9 280.202 48.1 A 2.02 2.02 0 0 0 280.206 48.227 Q 280.236 48.7 280.502 48.7 A 0.138 0.138 0 0 0 280.557 48.685 Q 280.643 48.645 280.797 48.502 A 3.984 3.984 0 0 0 280.902 48.4 A 41.851 41.851 0 0 0 280.941 48.356 Q 281.73 47.466 282.852 46.1 Q 284.002 44.7 285.002 43.2 Q 283.702 46.8 282.352 50.7 A 500.322 500.322 0 0 1 281.538 53.035 Q 281.145 54.151 280.782 55.165 A 274.954 274.954 0 0 1 279.952 57.45 A 128.713 128.713 0 0 1 279.82 57.807 Q 279.066 59.837 278.675 60.662 A 5.075 5.075 0 0 1 278.502 61 A 1.325 1.325 0 0 0 278.461 61.109 Q 278.297 61.609 278.797 61.686 Z M 186.802 1 L 187.802 1.3 A 1.769 1.769 0 0 0 187.896 1.344 Q 187.987 1.383 188.051 1.395 A 0.282 0.282 0 0 0 188.102 1.4 Q 188.185 1.4 188.268 1.469 A 0.497 0.497 0 0 1 188.302 1.5 A 6.574 6.574 0 0 1 189.867 2.789 A 5.02 5.02 0 0 1 191.102 6.2 Q 191.102 8.6 189.502 11.6 A 21.437 21.437 0 0 1 188.27 13.722 Q 186.97 15.712 184.952 18.05 Q 181.802 21.7 177.752 25.45 Q 173.702 29.2 169.452 32.65 A 150.1 150.1 0 0 1 165.877 35.468 Q 163.671 37.15 161.702 38.5 Q 160.702 40.4 159.902 42.9 Q 159.102 45.4 158.602 47.9 A 53.868 53.868 0 0 1 163.083 42.271 A 58.218 58.218 0 0 1 163.102 42.25 Q 164.902 40.271 166.39 38.887 A 30.459 30.459 0 0 1 167.502 37.9 Q 170.602 35.3 173.552 33.75 Q 176.502 32.2 179.002 32.2 A 4.652 4.652 0 0 1 179.936 32.303 Q 180.828 32.487 181.943 32.996 A 14.322 14.322 0 0 1 181.952 33 Q 183.702 33.8 185.152 35.05 Q 186.222 35.972 186.611 36.975 A 3.279 3.279 0 0 1 186.802 37.7 A 3.135 3.135 0 0 0 186.818 38.017 A 2.454 2.454 0 0 0 186.852 38.25 A 2.524 2.524 0 0 1 186.893 38.547 A 3.227 3.227 0 0 1 186.902 38.8 A 10.629 10.629 0 0 1 186.272 42.344 A 13.954 13.954 0 0 1 185.402 44.3 A 26.769 26.769 0 0 1 181.931 49.286 A 29.613 29.613 0 0 1 181.652 49.6 Q 179.402 52.1 176.952 54.1 A 87.744 87.744 0 0 1 175.192 55.502 Q 173.79 56.588 172.602 57.4 Q 168.802 59.9 164.552 61.55 Q 160.302 63.2 155.702 63.2 Q 154.888 63.2 153.841 63.067 A 23.521 23.521 0 0 1 153.352 63 Q 152.192 62.828 151.29 62.582 A 11.806 11.806 0 0 1 151.002 62.5 A 8.814 8.814 0 0 1 150.688 62.4 Q 150.074 62.19 150.01 62.035 A 0.092 0.092 0 0 1 150.002 62 A 0.128 0.128 0 0 1 150.061 61.904 Q 150.225 61.773 150.851 61.667 A 8.637 8.637 0 0 1 150.952 61.65 Q 151.87 61.505 154.14 61.5 A 74.551 74.551 0 0 1 154.302 61.5 Q 156.802 61.5 159.752 60.25 Q 162.702 59 165.402 57.3 Q 167.258 56.131 168.737 55.152 A 103.768 103.768 0 0 0 170.002 54.3 A 37.068 37.068 0 0 0 172.955 51.875 Q 174.353 50.61 175.791 49.09 A 61.611 61.611 0 0 0 176.202 48.65 A 20.959 20.959 0 0 0 179.522 43.963 A 18.552 18.552 0 0 0 180.702 41.1 A 33.011 33.011 0 0 0 180.808 40.719 Q 180.977 40.1 181.202 39.2 Q 181.502 38 181.502 36.8 Q 181.502 35.845 181.201 35.153 A 2.878 2.878 0 0 0 181.102 34.95 A 1.338 1.338 0 0 0 180.221 34.273 Q 179.98 34.209 179.687 34.201 A 3.109 3.109 0 0 0 179.602 34.2 A 8.111 8.111 0 0 0 177.174 34.588 A 10.982 10.982 0 0 0 175.452 35.3 Q 173.302 36.4 171.352 37.85 Q 169.402 39.3 168.002 40.6 Q 166.802 41.5 165.102 43.3 A 43.902 43.902 0 0 0 162.788 45.964 A 51.412 51.412 0 0 0 161.752 47.3 A 27.09 27.09 0 0 0 160.102 49.759 A 21.681 21.681 0 0 0 159.102 51.65 Q 158.333 53.304 158.333 54.691 A 4.645 4.645 0 0 0 158.402 55.5 Q 158.569 55.833 158.284 56.722 A 8.229 8.229 0 0 1 158.152 57.1 Q 157.712 58.273 156.652 58.299 A 1.977 1.977 0 0 1 156.602 58.3 A 1.258 1.258 0 0 1 156.01 58.134 Q 155.334 57.772 154.519 56.624 A 11.702 11.702 0 0 1 154.502 56.6 Q 153.805 55.803 153.802 53.318 A 17.615 17.615 0 0 1 153.802 53.3 A 24.522 24.522 0 0 1 153.958 50.606 A 32.021 32.021 0 0 1 154.302 48.3 A 156.439 156.439 0 0 1 154.546 47.013 Q 154.852 45.433 155.117 44.27 A 50.618 50.618 0 0 1 155.202 43.9 Q 154.202 45.1 153.452 46.45 Q 152.702 47.8 150.402 50.4 A 1.474 1.474 0 0 1 150.061 50.659 A 1.16 1.16 0 0 1 149.502 50.8 Q 148.802 50.8 148.802 50 A 1.479 1.479 0 0 1 148.893 49.474 A 1.329 1.329 0 0 1 149.202 49 A 776.937 776.937 0 0 0 151.741 45.74 Q 152.731 44.461 153.609 43.313 A 381.579 381.579 0 0 0 155.252 41.15 A 72.101 72.101 0 0 0 156.299 39.728 Q 157.731 37.728 158.23 36.661 A 5.438 5.438 0 0 0 158.302 36.5 Q 159.018 34.621 160.174 31.783 A 438.173 438.173 0 0 1 160.452 31.1 Q 161.802 27.8 163.502 24.05 Q 165.202 20.3 167.002 16.75 A 80.04 80.04 0 0 1 168.558 13.826 Q 169.361 12.393 170.143 11.159 A 46.191 46.191 0 0 1 170.502 10.6 A 42.936 42.936 0 0 1 172.573 7.705 A 51.176 51.176 0 0 1 174.002 5.95 Q 176.002 3.6 178.502 2.05 Q 181.002 0.5 183.902 0.5 A 9.364 9.364 0 0 1 185.127 0.585 A 12.533 12.533 0 0 1 186.302 0.8 Q 186.401 0.8 186.792 0.995 A 8.576 8.576 0 0 1 186.802 1 Z M 263.302 61.4 Q 261.602 61.4 260.152 60.6 Q 258.934 59.928 258.246 58.269 A 8.343 8.343 0 0 1 258.002 57.6 A 3.597 3.597 0 0 1 257.995 57.579 Q 257.702 56.681 257.702 55.1 A 19.112 19.112 0 0 1 257.848 52.813 Q 257.998 51.571 258.302 50.2 A 48.149 48.149 0 0 1 258.766 48.288 Q 259.165 46.788 259.602 45.6 A 1.274 1.274 0 0 0 259.343 45.752 Q 258.807 46.139 257.752 47.35 Q 256.402 48.9 254.452 51.05 Q 252.502 53.2 250.152 55.35 A 27.481 27.481 0 0 1 246.888 57.926 A 23.533 23.533 0 0 1 245.302 58.9 A 11.787 11.787 0 0 1 243.057 59.881 A 8.881 8.881 0 0 1 240.402 60.3 A 6.173 6.173 0 0 1 238.659 60.036 Q 237.954 59.829 237.214 59.459 A 10.8 10.8 0 0 1 237.002 59.35 A 8.845 8.845 0 0 1 235.026 57.948 A 7.818 7.818 0 0 1 234.102 56.9 A 8.194 8.194 0 0 1 233.11 55.211 A 6.081 6.081 0 0 1 232.602 52.8 A 8.858 8.858 0 0 1 233.156 49.787 Q 233.614 48.514 234.452 47.2 A 26.725 26.725 0 0 1 237.037 43.809 A 34.071 34.071 0 0 1 239.252 41.55 Q 242.202 38.8 245.552 36.55 A 68.72 68.72 0 0 1 249.226 34.24 A 53.606 53.606 0 0 1 251.952 32.75 Q 255.002 31.2 256.902 30.7 A 13.902 13.902 0 0 1 259.31 30.215 A 18.306 18.306 0 0 1 261.402 30.1 A 12.297 12.297 0 0 1 263.558 30.297 A 14.299 14.299 0 0 1 264.302 30.45 A 7.272 7.272 0 0 1 265.599 30.877 A 5.45 5.45 0 0 1 266.802 31.6 Q 267.602 32 268.102 32.7 A 2.688 2.688 0 0 1 268.512 33.537 A 2.439 2.439 0 0 1 268.602 34.2 A 1.351 1.351 0 0 1 268.588 34.405 Q 268.511 34.905 268.011 34.741 A 1.325 1.325 0 0 1 267.902 34.7 Q 267.102 33.5 265.752 33.15 Q 264.402 32.8 263.002 32.8 Q 259.676 32.8 255.797 34.598 A 28.595 28.595 0 0 0 254.202 35.4 A 42.604 42.604 0 0 0 245.841 41.282 A 39.904 39.904 0 0 0 245.602 41.5 Q 244.402 42.5 242.352 44.95 Q 240.302 47.4 238.602 50.3 Q 237.355 52.427 237.023 54.285 A 7.463 7.463 0 0 0 236.902 55.6 A 4.095 4.095 0 0 0 237.162 57.073 A 3.804 3.804 0 0 0 237.602 57.9 A 1.314 1.314 0 0 0 238.545 58.569 A 1.956 1.956 0 0 0 238.902 58.6 A 3.63 3.63 0 0 0 239.844 58.461 Q 240.753 58.215 241.938 57.534 A 17.968 17.968 0 0 0 242.652 57.1 A 38.414 38.414 0 0 0 245.343 55.207 A 49.415 49.415 0 0 0 247.502 53.45 Q 250.002 51.3 252.052 49.3 Q 253.94 47.458 254.853 46.549 A 105.882 105.882 0 0 0 255.002 46.4 A 25.395 25.395 0 0 0 255.266 46.131 Q 255.69 45.695 256.453 44.882 A 316.244 316.244 0 0 0 256.952 44.35 Q 258.402 42.8 260.102 41 A 116.971 116.971 0 0 1 261.523 39.521 Q 262.393 38.631 263.152 37.9 A 19.73 19.73 0 0 1 263.625 37.458 Q 264.558 36.617 264.889 36.6 A 0.261 0.261 0 0 1 264.902 36.6 Q 265.398 36.6 266.533 36.846 A 25.735 25.735 0 0 1 266.552 36.85 Q 267.702 37.1 268.502 37.6 Q 269.247 38.065 268.865 38.791 A 1.702 1.702 0 0 1 268.802 38.9 Q 266.202 42.7 264.652 46.85 A 57.222 57.222 0 0 0 263.879 49.046 Q 263.178 51.187 262.904 52.729 A 13.325 13.325 0 0 0 262.802 53.4 A 3.473 3.473 0 0 0 262.723 53.823 A 2.713 2.713 0 0 0 262.702 54.15 L 262.702 54.9 A 8.462 8.462 0 0 0 262.809 56.31 Q 263.234 58.812 265.351 58.897 A 3.763 3.763 0 0 0 265.502 58.9 A 3.457 3.457 0 0 0 266.481 58.741 Q 267.399 58.468 268.578 57.726 A 18.104 18.104 0 0 0 269.502 57.1 A 42.593 42.593 0 0 0 272.346 54.854 A 53.976 53.976 0 0 0 274.602 52.8 A 114.022 114.022 0 0 0 277.676 49.734 A 94.536 94.536 0 0 0 279.352 47.95 Q 281.502 45.6 282.302 44.4 Q 282.503 44.199 282.703 44.133 A 0.629 0.629 0 0 1 282.902 44.1 Q 283.302 44.1 283.602 44.45 A 0.634 0.634 0 0 1 283.717 44.64 Q 283.811 44.892 283.653 45.207 A 1.399 1.399 0 0 1 283.602 45.3 A 23.692 23.692 0 0 1 282.728 46.62 Q 281.78 47.959 280.402 49.6 A 62.115 62.115 0 0 1 277.048 53.272 A 72.15 72.15 0 0 1 275.702 54.6 A 52.411 52.411 0 0 1 272.809 57.191 A 41.342 41.342 0 0 1 270.602 58.9 A 10.297 10.297 0 0 1 269.23 59.783 Q 268.365 60.252 267.302 60.65 A 11.527 11.527 0 0 1 264.052 61.374 A 10.69 10.69 0 0 1 263.302 61.4 Z M 132.153 61.161 A 6.908 6.908 0 0 0 134.002 61.4 A 10.69 10.69 0 0 0 134.752 61.374 A 11.527 11.527 0 0 0 138.002 60.65 Q 139.065 60.252 139.93 59.783 A 10.297 10.297 0 0 0 141.302 58.9 Q 143.802 57.1 146.402 54.55 Q 149.002 52 151.152 49.45 Q 152.63 47.697 153.518 46.346 A 14.286 14.286 0 0 0 154.202 45.2 Q 154.366 44.927 154.366 44.714 A 0.476 0.476 0 0 0 154.252 44.4 A 0.815 0.815 0 0 0 153.942 44.165 A 0.864 0.864 0 0 0 153.602 44.1 A 0.942 0.942 0 0 0 153.471 44.109 A 0.646 0.646 0 0 0 153.002 44.4 Q 152.202 45.6 150.052 47.95 A 81.988 81.988 0 0 1 148.369 49.734 A 100.391 100.391 0 0 1 145.252 52.8 A 58.694 58.694 0 0 1 142.962 54.854 A 45.644 45.644 0 0 1 140.102 57.1 A 18.104 18.104 0 0 1 139.178 57.726 Q 137.999 58.468 137.081 58.741 A 3.457 3.457 0 0 1 136.102 58.9 A 3.475 3.475 0 0 1 135.931 58.896 Q 133.913 58.797 133.505 56.31 A 8.769 8.769 0 0 1 133.402 54.9 L 133.402 54.15 A 2.713 2.713 0 0 1 133.423 53.823 A 3.473 3.473 0 0 1 133.502 53.4 Q 134.202 48.1 136.602 43.5 A 67.508 67.508 0 0 1 136.961 42.844 Q 137.595 41.696 138.552 40.05 Q 139.802 37.9 141.052 35.8 A 3212.847 3212.847 0 0 1 141.097 35.724 Q 142.313 33.682 142.902 32.7 A 1.704 1.704 0 0 0 142.921 32.666 Q 143.303 31.94 142.663 31.412 A 2.205 2.205 0 0 0 142.352 31.2 A 6.639 6.639 0 0 0 141.124 30.661 A 8.968 8.968 0 0 0 139.852 30.35 A 29.843 29.843 0 0 0 139.199 30.244 Q 138.234 30.1 137.702 30.1 Q 137.002 31.1 135.802 33.2 Q 134.602 35.3 133.352 37.5 A 61.59 61.59 0 0 1 132.595 38.797 Q 132.229 39.406 131.887 39.938 A 29.04 29.04 0 0 1 131.102 41.1 Q 130.002 42.8 127.952 45.65 A 67.882 67.882 0 0 1 126.862 47.123 A 78.315 78.315 0 0 1 123.352 51.4 A 38.82 38.82 0 0 1 121.419 53.448 A 31.408 31.408 0 0 1 118.102 56.3 A 14.142 14.142 0 0 1 117.17 56.936 Q 116.225 57.526 115.318 57.861 A 6.67 6.67 0 0 1 113.002 58.3 A 3.922 3.922 0 0 1 112.519 58.271 Q 110.72 58.048 110.318 56.077 A 6.422 6.422 0 0 1 110.202 54.8 A 9.2 9.2 0 0 1 110.27 53.712 Q 110.369 52.882 110.613 51.95 A 19.713 19.713 0 0 1 111.202 50.1 A 31.427 31.427 0 0 1 111.512 49.259 A 27.85 27.85 0 0 1 114.252 43.9 Q 116.102 41.1 118.002 39.1 A 118.314 118.314 0 0 1 118.849 38.217 Q 120.16 36.866 121.002 36.1 A 5.78 5.78 0 0 0 121.304 35.776 Q 121.802 35.194 121.802 34.8 A 0.457 0.457 0 0 0 121.749 34.588 Q 121.652 34.399 121.375 34.236 A 2.413 2.413 0 0 0 121.102 34.1 A 2.455 2.455 0 0 0 120.851 33.992 Q 120.055 33.7 118.602 33.7 A 12.504 12.504 0 0 0 118.404 33.702 Q 116.927 33.725 115.802 34.1 A 0.68 0.68 0 0 0 115.641 34.167 Q 115.331 34.339 114.822 34.89 A 12.842 12.842 0 0 0 114.502 35.25 Q 113.602 36.3 112.702 37.7 Q 111.802 39.1 111.102 40.1 Q 109.102 43.1 107.802 46.55 Q 106.502 50 106.502 52.9 A 11.199 11.199 0 0 0 106.505 53.169 Q 106.528 54.103 106.708 54.911 A 6.302 6.302 0 0 0 107.502 56.9 Q 108.128 57.902 109.244 58.629 A 8.613 8.613 0 0 0 110.752 59.4 A 16.816 16.816 0 0 0 111.934 59.825 Q 113.44 60.3 114.602 60.3 A 7.655 7.655 0 0 0 116.583 60.042 A 8.504 8.504 0 0 0 119.152 58.85 A 16.995 16.995 0 0 0 120.723 57.65 A 20.162 20.162 0 0 0 123.152 55.15 A 61.661 61.661 0 0 0 123.722 54.447 A 55.095 55.095 0 0 0 126.502 50.65 A 115.689 115.689 0 0 0 127.391 49.297 Q 127.811 48.648 128.182 48.052 A 62.467 62.467 0 0 0 129.002 46.7 A 32.016 32.016 0 0 1 129.366 46.095 Q 129.89 45.249 130.203 44.894 A 1.409 1.409 0 0 1 130.402 44.7 Q 129.602 46.7 128.952 49.7 Q 128.607 51.294 128.445 52.718 A 21.137 21.137 0 0 0 128.302 55.1 Q 128.302 55.8 128.452 56.45 Q 128.537 56.816 128.605 57.134 A 32.208 32.208 0 0 1 128.702 57.6 A 8.516 8.516 0 0 0 128.99 58.378 Q 129.666 59.95 130.802 60.6 A 5.862 5.862 0 0 0 132.153 61.161 Z M 162.802 34.5 A 73.499 73.499 0 0 0 169.127 29.855 A 87.486 87.486 0 0 0 172.002 27.4 Q 176.602 23.3 180.552 18.8 Q 184.502 14.3 186.902 10.4 A 10.966 10.966 0 0 0 187.873 8.467 Q 188.402 7.066 188.402 5.7 A 4.459 4.459 0 0 0 188.328 4.864 Q 188.219 4.295 187.952 3.85 A 1.475 1.475 0 0 0 186.886 3.131 A 2.269 2.269 0 0 0 186.502 3.1 A 3.051 3.051 0 0 0 185.917 3.161 Q 185.431 3.256 184.852 3.5 Q 183.902 3.9 182.802 4.9 A 38.027 38.027 0 0 0 177.429 9.922 A 46.447 46.447 0 0 0 175.002 12.9 Q 171.402 17.7 168.402 23.25 Q 165.402 28.8 162.802 34.5 Z M 77.702 32.5 A 76.455 76.455 0 0 0 81.336 29.879 Q 83.153 28.491 85.094 26.862 A 129.652 129.652 0 0 0 86.402 25.75 Q 91.102 21.7 95.252 17.05 Q 99.402 12.4 101.602 8.2 A 15.703 15.703 0 0 0 102.182 6.97 Q 102.724 5.667 102.792 4.679 A 4.037 4.037 0 0 0 102.802 4.4 A 2.805 2.805 0 0 0 102.735 3.758 Q 102.486 2.7 101.302 2.7 Q 100.602 2.7 99.702 3.05 Q 99.091 3.288 98.34 3.78 A 14.344 14.344 0 0 0 97.602 4.3 Q 90.902 9.5 86.302 16.65 Q 81.702 23.8 77.702 32.5 Z M 205.802 32.5 A 76.455 76.455 0 0 0 209.436 29.879 Q 211.253 28.491 213.194 26.862 A 129.652 129.652 0 0 0 214.502 25.75 Q 219.202 21.7 223.352 17.05 Q 227.502 12.4 229.702 8.2 A 15.703 15.703 0 0 0 230.282 6.97 Q 230.824 5.667 230.892 4.679 A 4.037 4.037 0 0 0 230.902 4.4 A 2.805 2.805 0 0 0 230.835 3.758 Q 230.586 2.7 229.402 2.7 Q 228.702 2.7 227.802 3.05 Q 227.191 3.288 226.44 3.78 A 14.344 14.344 0 0 0 225.702 4.3 Q 219.002 9.5 214.402 16.65 Q 209.802 23.8 205.802 32.5 Z" vector-effect="non-scaling-stroke"/></g></svg>